# xmcd
#
# Track frame offsets: 
#        150
#        14267
#        28546
#        55339
#
# Disc length: 1423 seconds
#
# Revision: 2
# Processed by: cddbd v1.5.2PL0 Copyright (c) Steve Scherf et al.
# Submitted via: ExactAudioCopy v0.99pb3
#
DISCID=28058d04
DTITLE=JJ72 - Coming Home part 2
DYEAR=2005
DGENRE=Indie
TTITLE0=Coming Home
TTITLE1=We'll Wait For You
TTITLE2=Spires
TTITLE3=Data track
EXTD=
EXTT0=
EXTT1=
EXTT2=
EXTT3=
PLAYORDER=
